<svg id="Layer_1" data-name="Layer 1" xmlns="http://www.w3.org/2000/svg" viewBox="0 0 62 62"><defs><style>.cls-1{fill:#fff;}</style></defs><title>sns-icon</title><path class="cls-1" d="M61.84,19.23a23.56,23.56,0,0,0-1.64-8.52A15.73,15.73,0,0,0,49,1.36a33.22,33.22,0,0,0-7.08-1C41.69.34,41.5,0,41.3,0H21c-.64,0-1.28.36-1.92.39a23.67,23.67,0,0,0-8.52,1.76A15.82,15.82,0,0,0,1.22,13.43a33.39,33.39,0,0,0-.94,7.11c0,.19-.28.42-.28.61V41.44c0,.64.29,1.28.32,1.92A23.63,23.63,0,0,0,2,51.88a15.79,15.79,0,0,0,11.27,9.36,33,33,0,0,0,7.1.71c.19,0,.41,0,.6,0H41.3c.64,0,1.28-.06,1.92-.09a23.53,23.53,0,0,0,8.52-1.61A15.7,15.7,0,0,0,61.1,49.09,32.85,32.85,0,0,0,61.88,42c0-.19.12-.38.12-.57V21.15C62,20.51,61.87,19.88,61.84,19.23ZM56.19,43.6a20.63,20.63,0,0,1-.65,4.53,10.08,10.08,0,0,1-8.71,7.78,61.71,61.71,0,0,1-8,.55c-3.6.09-7.21.1-10.81.06s-7.25-.09-10.86-.31A11.27,11.27,0,0,1,9,52.45a10.94,10.94,0,0,1-2.6-6.21C6.13,43.84,6,41.42,6,39q-.11-5.4,0-10.81c0-3.62.1-7.25.32-10.86A11.28,11.28,0,0,1,10,9.11a10.94,10.94,0,0,1,6.21-2.6c2.4-.25,4.83-.35,7.25-.4q5.4-.11,10.81,0c3.62,0,7.25.1,10.86.32a11.28,11.28,0,0,1,8.22,3.75,10.94,10.94,0,0,1,2.6,6.21c.25,2.41.34,4.68.4,7.1s0,4.55,0,7.55h.09C56.37,35,56.34,39.45,56.19,43.6Z"/><path class="cls-1" d="M31.2,15.47A15.83,15.83,0,1,0,47,31.31,15.82,15.82,0,0,0,31.2,15.47Zm-.05,26.07A10.25,10.25,0,1,1,41.41,31.41,10.26,10.26,0,0,1,31.15,41.54Z"/><path class="cls-1" d="M47.57,11.15a3.72,3.72,0,1,0,3.74,3.7A3.72,3.72,0,0,0,47.57,11.15Z"/></svg>